<?xml version="1.0" standalone="no"?>
<!DOCTYPE svg PUBLIC "-//W3C//DTD SVG 20010904//EN"
 "http://www.w3.org/TR/2001/REC-SVG-20010904/DTD/svg10.dtd">
<svg version="1.0" xmlns="http://www.w3.org/2000/svg"
 width="1024.000000pt" height="1024.000000pt" viewBox="0 0 1024.000000 1024.000000"
 preserveAspectRatio="xMidYMid meet">

<g transform="translate(0.000000,1024.000000) scale(0.100000,-0.100000)"
fill="#000000" stroke="none">
<path d="M4740 8119 c-1612 -4 -2238 -8 -2271 -16 -323 -80 -482 -159 -655
-325 -218 -209 -341 -447 -400 -773 -14 -80 -16 -237 -15 -1460 l2 -1370 -25
-136 c-13 -76 -34 -168 -46 -205 -38 -121 -30 -182 39 -267 l30 -39 -2 -216
c-2 -239 8 -312 65 -492 34 -107 117 -273 186 -370 78 -110 216 -241 337 -319
124 -81 253 -135 425 -177 l115 -29 2645 0 2645 0 135 37 c303 81 505 208 692
432 70 84 181 283 211 381 32 102 67 252 77 337 8 70 15 2328 7 2538 -1 25 8
90 20 145 52 237 53 425 2 673 -25 125 -28 152 -19 210 19 130 10 253 -31 414
-21 86 -139 350 -188 424 -60 89 -179 228 -246 288 -165 146 -409 256 -680
307 -84 16 -90 16 -3055 8z m3072 -202 c173 -33 351 -104 454 -180 140 -103
244 -219 328 -363 51 -88 136 -320 135 -369 l0 -30 -37 44 c-134 161 -238 244
-421 335 -305 153 -460 173 -1253 162 -273 -3 -477 -10 -493 -16 -48 -18 -105
-73 -132 -127 -25 -52 -26 -64 -32 -261 l-6 -207 -56 75 c-119 160 -241 268
-425 376 -314 185 -735 233 -1124 129 -240 -65 -477 -212 -659 -411 -86 -94
-204 -274 -243 -370 -34 -85 -48 -109 -48 -80 0 9 -4 14 -10 11 -5 -3 -7 0 -4
8 10 28 -97 267 -195 434 -32 57 -118 153 -135 153 -6 0 6 -44 14 -50 3 -3 11
-23 18 -45 8 -26 24 -49 46 -65 32 -23 33 -27 21 -46 -15 -23 -9 -108 6 -98 5
3 9 0 9 -5 0 -6 -4 -11 -9 -11 -5 0 -11 -9 -14 -19 -3 -13 0 -18 8 -15 9 4 11
-3 8 -20 -3 -16 -1 -26 6 -26 6 0 11 7 11 15 0 8 9 15 20 15 11 0 20 -7 20
-15 0 -28 24 -65 42 -65 10 0 18 -4 18 -10 0 -5 -5 -10 -11 -10 -8 0 -8 -4 -1
-12 7 -9 4 -20 -10 -38 -14 -16 -22 -21 -25 -12 -3 6 -13 12 -24 12 -22 0 -21
-18 7 -130 8 -30 14 -59 13 -65 -2 -21 -42 120 -110 385 -130 513 -136 528
-211 578 l-42 27 -383 3 c-259 2 -396 -1 -424 -8 -27 -7 -58 -28 -88 -58 -41
-41 -50 -59 -73 -137 -14 -49 -56 -193 -93 -320 -37 -126 -86 -300 -110 -385
-24 -85 -68 -238 -98 -340 -79 -264 -181 -630 -226 -810 -21 -85 -50 -195 -65
-245 -15 -49 -40 -137 -57 -195 -35 -118 -47 -141 -62 -115 -5 10 -10 417 -11
1004 -2 815 0 1002 12 1076 55 348 235 635 495 794 80 48 223 114 285 131 132
35 167 35 2783 34 2350 -1 2582 -2 2661 -17z m-2364 -621 c191 -48 378 -142
511 -256 106 -91 224 -245 286 -374 68 -142 101 -236 121 -344 14 -75 16 -184
15 -802 -1 -437 -5 -738 -12 -775 -24 -140 -114 -350 -206 -480 -66 -93 -190
-223 -265 -280 -96 -72 -245 -152 -356 -190 -152 -52 -261 -68 -417 -62 -303
12 -522 101 -777 314 -184 155 -317 373 -381 628 -46 180 -49 239 -44 932 4
723 4 716 72 913 136 397 486 695 926 789 137 30 381 23 527 -13z m-2274 -16
c23 -18 32 -43 51 -133 8 -40 30 -126 50 -192 35 -122 149 -543 205 -760 77
-292 126 -482 204 -790 47 -181 105 -411 131 -510 25 -99 52 -200 60 -225 7
-25 21 -85 30 -135 25 -138 83 -393 105 -460 39 -121 83 -326 71 -338 -10 -10
-79 -10 -471 -2 -140 3 -146 4 -163 27 -20 27 -102 306 -136 463 -12 55 -28
120 -36 145 l-15 45 -227 -2 c-126 -2 -320 -6 -431 -9 l-204 -6 -13 -32 c-8
-18 -32 -100 -54 -182 -86 -319 -120 -437 -130 -447 -11 -11 -657 -15 -668 -4
-11 11 19 159 70 342 27 99 60 218 72 265 12 47 38 139 58 205 19 66 49 167
65 225 17 58 48 168 71 245 22 77 63 228 91 335 28 107 64 240 80 295 15 55
49 177 75 270 26 94 60 213 76 265 15 52 58 199 94 325 36 127 74 257 85 290
10 33 42 143 70 245 62 218 70 237 111 247 17 5 160 8 318 8 238 0 291 -3 305
-15z m4523 10 c146 -11 238 -28 334 -61 152 -52 302 -149 424 -273 136 -139
213 -288 277 -537 28 -111 31 -139 31 -269 0 -157 -16 -260 -60 -385 -33 -93
-72 -160 -156 -274 -139 -186 -393 -349 -617 -396 -84 -18 -349 -35 -546 -35
-116 0 -133 -2 -140 -17 -4 -10 -9 -302 -12 -649 -2 -347 -8 -638 -13 -645 -7
-11 -65 -15 -303 -17 -198 -2 -302 1 -316 8 -20 11 -20 16 -20 1761 l0 1750
25 24 24 25 468 0 c257 0 528 -5 600 -10z m-4100 -392 c-3 -7 -5 -2 -5 12 0
14 2 19 5 13 2 -7 2 -19 0 -25z m175 -355 c-6 -3 -10 -8 -7 -13 10 -16 -64
-265 -75 -253 -8 8 -60 195 -60 215 0 6 8 4 18 -5 24 -22 52 -7 33 17 -18 21
5 22 26 1 18 -18 36 -10 28 14 -3 10 3 20 18 27 12 5 24 8 27 6 3 -3 -1 -7 -8
-9z m4984 -1749 c4 -309 4 -573 0 -588 l-7 -27 -167 5 c-92 4 -317 9 -499 12
l-333 5 -6 25 c-3 13 -4 33 -1 44 3 10 0 21 -7 24 -7 3 -6 8 4 16 13 10 13 11
0 7 -10 -3 -14 -16 -13 -43 1 -21 -1 -29 -4 -16 -2 12 -8 20 -13 17 -10 -6 8
-55 23 -66 7 -5 -138 -19 -248 -23 l-40 -1 0 338 0 338 85 4 c270 13 333 18
410 31 144 25 230 53 355 115 175 87 260 155 399 324 29 34 41 43 47 33 4 -7
11 -266 15 -574z m-5653 -631 c4 -21 22 -87 41 -148 19 -60 51 -171 71 -245
21 -74 43 -147 51 -161 20 -40 80 -87 121 -96 21 -4 202 -8 403 -8 408 0 400
-1 457 72 41 54 53 87 53 147 0 29 3 56 7 59 3 4 18 -1 32 -10 14 -10 102 -55
196 -101 130 -64 193 -89 270 -107 173 -40 246 -49 375 -48 203 2 389 48 595
148 198 96 287 166 492 388 40 42 78 77 85 77 10 0 13 -48 11 -240 -1 -210 -3
-244 -19 -268 l-17 -27 21 19 c12 11 22 26 22 35 0 10 5 7 17 -9 27 -42 76
-91 108 -108 26 -15 75 -17 405 -17 268 0 386 3 415 12 23 7 58 30 80 52 38
40 39 41 46 143 4 57 9 144 10 193 l3 90 5 -70 6 -70 8 48 c7 41 11 47 32 47
29 0 67 29 58 43 -3 6 -1 7 6 3 17 -11 63 -18 58 -9 -3 4 164 7 371 5 208 -2
392 0 410 3 18 3 50 22 71 41 39 35 52 37 104 16 16 -7 41 -12 56 -12 15 0 31
-3 35 -7 4 -5 24 -13 44 -18 l37 -11 3 -389 c3 -423 -1 -492 -48 -680 -61
-246 -188 -445 -390 -610 -87 -71 -145 -104 -270 -152 -199 -78 45 -72 -2875
-73 l-2620 -2 -115 25 c-432 94 -745 416 -846 872 -19 86 -29 302 -20 416 l7
84 327 0 c356 0 376 3 437 56 33 30 52 70 99 215 36 113 116 395 116 411 0 10
56 13 263 15 144 2 265 2 268 1 4 -2 9 -20 12 -40z m4374 -185 c-3 -8 -6 -5
-6 6 -1 11 2 17 5 13 3 -3 4 -12 1 -19z"/>
<path d="M3731 7597 c2 -1 15 -11 28 -22 l24 -20 -14 23 c-8 12 -20 22 -28 22
-8 0 -12 -1 -10 -3z"/>
<path d="M3791 7514 c0 -11 3 -14 6 -6 3 7 2 16 -1 19 -3 4 -6 -2 -5 -13z"/>
<path d="M3500 7067 c0 -7 9 -13 19 -13 15 0 17 3 9 13 -6 7 -14 13 -19 13 -5
0 -9 -6 -9 -13z"/>
<path d="M5035 6584 c-149 -33 -263 -114 -353 -248 -27 -41 -60 -102 -73 -137
-23 -64 -23 -66 -27 -597 -2 -301 1 -580 7 -640 9 -93 15 -116 50 -187 64
-129 140 -209 248 -264 154 -79 365 -81 512 -6 106 53 225 192 287 335 l29 65
3 580 c2 416 0 596 -8 635 -15 68 -75 198 -123 264 -36 49 -101 109 -161 146
-98 60 -262 83 -391 54z m199 -209 c50 -8 125 -46 169 -85 39 -34 92 -143 107
-219 5 -30 10 -127 10 -217 0 -191 10 -181 -125 -136 -93 32 -114 55 -135 152
-16 73 -45 121 -83 134 -52 19 -93 -31 -126 -151 -14 -54 -28 -85 -46 -100
-23 -21 -117 -54 -194 -69 l-32 -7 1 159 c2 261 25 350 117 442 56 56 124 91
196 102 52 8 67 7 141 -5z m-31 -692 c19 -30 40 -50 67 -61 22 -10 40 -20 40
-24 0 -3 -22 -23 -49 -43 -28 -20 -60 -51 -71 -70 -12 -19 -25 -35 -29 -35 -5
0 -21 21 -37 46 -26 42 -102 104 -128 104 -6 0 14 13 44 28 44 22 61 37 85 79
25 43 32 49 40 37 6 -9 23 -36 38 -61z m315 -465 c-3 -333 -3 -332 -92 -440
-36 -44 -64 -66 -121 -94 -73 -36 -76 -37 -161 -31 -74 5 -95 11 -151 43 -79
44 -135 101 -171 174 l-27 55 -5 288 c-3 194 -2 286 5 283 6 -2 37 -9 70 -16
33 -7 72 -18 86 -26 42 -21 87 -80 103 -133 29 -97 60 -140 104 -141 37 0 69
42 92 121 12 41 30 85 40 100 28 39 155 101 223 108 4 1 7 -131 5 -291z"/>
<path d="M5371 6273 c-1 -8 -15 -13 -33 -14 -18 0 -27 -3 -21 -6 10 -3 10 -11
-2 -32 -7 -15 -13 -41 -13 -58 l1 -30 46 12 c112 31 125 50 70 107 -17 18 -28
27 -24 21 3 -7 2 -13 -4 -13 -5 0 -12 6 -14 13 -4 10 -6 10 -6 0z"/>
<path d="M5281 6134 c0 -11 3 -14 6 -6 3 7 2 16 -1 19 -3 4 -6 -2 -5 -13z"/>
<path d="M5108 4825 c-2 -60 -8 -120 -12 -132 -7 -19 -5 -23 10 -23 18 0 19 8
16 113 -4 158 -8 169 -14 42z"/>
<path d="M2796 6028 c-49 -159 -71 -239 -96 -348 -11 -52 -34 -138 -50 -190
-30 -98 -73 -274 -85 -346 l-6 -42 66 -7 c37 -4 159 -4 272 0 167 6 206 10
210 23 3 8 -4 49 -15 91 -23 81 -144 564 -187 746 -54 232 -59 235 -109 73z"/>
<path d="M2530 4619 c-86 -14 -83 -18 10 -12 47 3 168 8 270 12 l185 8 -205 0
c-113 0 -230 -3 -260 -8z"/>
<path d="M2056 4153 c-6 -14 -5 -15 5 -6 7 7 10 15 7 18 -3 3 -9 -2 -12 -12z"/>
<path d="M2021 4097 c-11 -18 -29 -42 -41 -52 -11 -10 -20 -22 -20 -27 0 -11
66 65 81 93 17 32 2 21 -20 -14z"/>
<path d="M7268 6592 c-9 -2 -18 -18 -22 -40 -9 -57 -7 -760 3 -766 4 -3 93 -8
197 -12 225 -8 312 2 400 46 112 55 211 185 234 307 36 192 -133 416 -341 453
-50 9 -437 19 -471 12z m427 -222 c30 -9 30 -9 -10 -8 -67 2 -75 -1 -75 -22 0
-11 5 -20 11 -20 8 0 10 -15 6 -48 -3 -26 -2 -54 3 -62 6 -9 4 -18 -3 -23 -8
-6 -8 -7 3 -4 11 3 15 17 14 50 -1 39 1 43 14 31 9 -10 13 -30 10 -59 -3 -38
-1 -44 13 -40 14 5 16 -5 18 -62 2 -88 17 -101 26 -24 8 70 31 105 81 126 43
18 43 31 -1 74 -36 35 -39 66 -3 34 93 -83 88 -194 -11 -270 l-43 -33 -151 0
-152 0 3 172 c1 95 4 178 6 183 5 14 202 18 241 5z m75 -36 c0 -2 -9 0 -20 6
-11 6 -20 13 -20 16 0 2 9 0 20 -6 11 -6 20 -13 20 -16z m-73 -131 c-3 -10 -5
-4 -5 12 0 17 2 24 5 18 2 -7 2 -21 0 -30z"/>
<path d="M7570 6341 c0 -11 -4 -23 -10 -26 -5 -3 -10 -13 -10 -21 0 -8 5 -12
10 -9 6 4 10 -8 10 -29 0 -25 4 -36 15 -36 8 0 15 7 15 16 0 8 -4 12 -10 9 -6
-4 -10 7 -9 27 0 30 1 31 9 11 13 -33 27 -28 22 7 -2 16 -7 28 -11 25 -4 -2
-7 5 -7 17 1 12 -5 23 -11 25 -8 3 -13 -4 -13 -16z"/>
<path d="M7508 6291 c-4 -12 -11 -20 -16 -17 -6 3 -12 -12 -14 -34 -3 -36 -1
-40 19 -40 30 0 33 8 25 66 -6 39 -9 44 -14 25z"/>
<path d="M7539 6225 c-6 -40 -4 -53 7 -43 3 3 4 23 2 44 l-3 39 -6 -40z"/>
<path d="M8597 6258 c-9 -24 -29 -80 -46 -125 -17 -46 -29 -83 -26 -83 12 0
83 160 89 203 4 26 5 47 3 47 -3 0 -12 -19 -20 -42z"/>
<path d="M7565 5293 c-88 -16 -99 -21 -85 -43 7 -10 10 -11 10 -2 0 6 9 12 20
12 11 0 20 5 20 12 0 6 3 8 6 5 4 -4 1 -13 -6 -22 -10 -12 -10 -15 4 -15 9 0
19 7 22 15 4 8 15 15 25 15 10 0 19 5 19 10 0 6 8 10 18 10 9 0 24 5 32 10 18
12 16 12 -85 -7z"/>
<path d="M3671 6444 c0 -11 3 -14 6 -6 3 7 2 16 -1 19 -3 4 -6 -2 -5 -13z"/>
<path d="M8067 4895 c-4 -8 -3 -16 1 -19 4 -3 9 4 9 15 2 23 -3 25 -10 4z"/>
<path d="M7693 4843 c9 -2 25 -2 35 0 9 3 1 5 -18 5 -19 0 -27 -2 -17 -5z"/>
<path d="M7781 4774 c0 -11 3 -14 6 -6 3 7 2 16 -1 19 -3 4 -6 -2 -5 -13z"/>
<path d="M8610 4780 c-9 -6 -10 -10 -3 -10 6 0 15 5 18 10 8 12 4 12 -15 0z"/>
<path d="M7816 4755 c-9 -26 -7 -32 5 -12 6 10 9 21 6 23 -2 3 -7 -2 -11 -11z"/>
<path d="M8520 4729 c0 -5 5 -7 10 -4 6 3 10 8 10 11 0 2 -4 4 -10 4 -5 0 -10
-5 -10 -11z"/>
<path d="M8410 4685 c-30 -13 -50 -24 -44 -25 6 0 37 11 70 25 32 13 52 24 44
24 -8 -1 -40 -11 -70 -24z"/>
<path d="M7783 4628 c-20 -7 -33 -17 -32 -27 0 -10 2 -12 6 -3 3 7 25 12 59
12 45 0 54 3 54 18 0 11 -3 13 -8 5 -5 -8 -13 -9 -22 -3 -17 11 -15 11 -57 -2z"/>
<path d="M7743 4530 c0 -25 2 -35 4 -22 2 12 2 32 0 45 -2 12 -4 2 -4 -23z"/>
<path d="M7732 3715 c-1 -77 -4 -192 -6 -255 -4 -105 -3 -109 5 -45 5 38 8
153 6 255 -2 175 -3 177 -5 45z"/>
<path d="M2762 3765 c0 -16 2 -22 5 -12 2 9 2 23 0 30 -3 6 -5 -1 -5 -18z"/>
<path d="M2751 3718 c0 -9 -14 -57 -29 -105 -27 -83 -49 -174 -39 -163 12 14
78 251 74 267 -4 16 -5 16 -6 1z"/>
<path d="M4410 3580 c0 -5 9 -10 20 -10 11 0 20 5 20 10 0 6 -9 10 -20 10 -11
0 -20 -4 -20 -10z"/>
<path d="M6274 3548 l-19 -23 23 19 c21 18 27 26 19 26 -2 0 -12 -10 -23 -22z"/>
<path d="M6181 3470 c-13 -11 -19 -20 -14 -20 6 0 18 9 28 20 23 25 17 25 -14
0z"/>
<path d="M8190 3450 c0 -5 -23 -32 -50 -60 -66 -65 -93 -66 -175 -5 -33 24
-65 49 -72 54 -17 15 -38 14 -52 -3 -9 -10 2 -23 49 -60 33 -26 68 -62 77 -79
19 -37 65 -97 75 -97 5 0 29 57 33 80 4 21 17 49 23 48 8 -3 97 59 125 86 19
18 19 19 2 33 -22 15 -35 17 -35 3z"/>
<path d="M2831 3433 c-16 -13 -28 -44 -41 -107 -41 -185 -104 -252 -278 -297
-92 -23 -118 -39 -125 -76 -11 -58 21 -88 123 -114 114 -29 202 -95 250 -189
11 -22 30 -78 41 -123 31 -124 80 -160 132 -97 28 33 29 36 52 135 34 151 123
234 300 280 92 23 125 71 83 120 -17 19 -47 33 -113 51 -101 29 -161 60 -198
103 -33 40 -83 164 -92 228 -9 68 -36 103 -80 103 -18 0 -42 -8 -54 -17z m118
-386 c29 -48 60 -71 121 -93 28 -10 50 -21 50 -24 0 -4 -23 -17 -51 -30 -58
-28 -139 -110 -165 -169 l-17 -40 -22 48 c-32 68 -78 116 -152 157 -35 20 -61
40 -56 44 4 4 40 27 79 52 64 41 74 53 109 121 l39 75 21 -53 c12 -29 32 -68
44 -88z"/>
<path d="M3550 3443 c0 -12 65 -81 115 -123 16 -14 3 4 -29 40 -33 36 -65 72
-73 80 -7 8 -13 10 -13 3z"/>
<path d="M2660 3420 c-6 -11 -7 -20 -2 -20 6 0 12 9 15 20 3 11 3 20 1 20 -2
0 -8 -9 -14 -20z"/>
<path d="M6130 3430 c-9 -6 -10 -10 -3 -10 6 0 15 5 18 10 8 12 4 12 -15 0z"/>
<path d="M6080 3400 c-9 -6 -10 -10 -3 -10 6 0 15 5 18 10 8 12 4 12 -15 0z"/>
<path d="M2638 3363 c-8 -15 -22 -41 -32 -58 l-18 -30 21 25 c27 31 54 80 48
87 -3 2 -11 -8 -19 -24z"/>
<path d="M5828 3313 c7 -3 16 -2 19 1 4 3 -2 6 -13 5 -11 0 -14 -3 -6 -6z"/>
<path d="M5740 3300 c-23 -7 -23 -8 -3 -9 12 -1 25 4 28 9 3 6 5 10 3 9 -2 -1
-14 -5 -28 -9z"/>
<path d="M7664 3292 c4 -7 1 -12 -8 -12 -8 0 -17 -4 -20 -9 -4 -5 3 -7 14 -4
26 7 34 19 19 29 -8 4 -9 3 -5 -4z"/>
<path d="M1790 3281 c8 -5 35 -11 60 -14 27 -4 37 -3 25 2 -28 11 -103 22 -85
12z"/>
<path d="M4168 3223 c6 -2 18 -2 25 0 6 3 1 5 -13 5 -14 0 -19 -2 -12 -5z"/>
<path d="M7525 3220 c-27 -7 -28 -8 -5 -8 14 0 34 3 45 8 25 11 2 11 -40 0z"/>
<path d="M2258 3213 c12 -2 32 -2 45 0 12 2 2 4 -23 4 -25 0 -35 -2 -22 -4z"/>
<path d="M7115 3198 c-8 -13 -20 -41 -26 -63 -25 -99 -49 -122 -160 -155 -34
-11 -70 -27 -80 -36 -45 -41 -5 -117 70 -130 49 -9 127 -52 146 -80 9 -13 21
-55 29 -93 16 -85 37 -121 72 -121 44 0 79 46 94 123 21 112 42 132 176 166
49 13 94 54 94 87 0 26 -40 62 -79 70 -56 12 -110 36 -135 60 -13 14 -37 57
-51 95 -15 38 -36 76 -48 84 -33 23 -83 19 -102 -7z m147 -279 c39 -26 39 -26
16 -32 -14 -4 -45 -24 -70 -46 l-45 -40 -29 31 c-16 17 -42 39 -58 49 l-29 18
36 14 c19 8 45 29 58 46 l22 30 30 -22 c16 -12 47 -34 69 -48z"/>
<path d="M7965 2955 c-20 -9 -50 -12 -90 -8 -54 5 -63 3 -87 -20 -35 -33 -36
-70 -2 -104 23 -23 31 -25 75 -20 37 5 60 1 95 -14 43 -19 49 -20 92 -6 29 10
65 13 94 10 65 -8 95 2 113 37 14 28 14 34 -1 66 -21 43 -65 65 -132 65 -26
-1 -65 1 -87 4 -23 2 -53 -2 -70 -10z"/>
<path d="M5350 2916 c14 -8 56 -20 94 -26 43 -8 74 -19 84 -31 20 -23 35 -24
53 -3 12 14 9 20 -15 41 -26 22 -37 24 -110 23 -45 -1 -92 1 -106 4 l-25 7 25
-15z"/>
<path d="M4705 2870 c3 -5 10 -10 16 -10 5 0 9 5 9 10 0 6 -7 10 -16 10 -8 0
-12 -4 -9 -10z"/>
<path d="M5161 2534 c-23 -24 -26 -25 -38 -8 -11 16 -13 12 -13 -27 0 -88 58
-111 72 -29 5 25 7 55 6 67 -3 22 -3 22 -27 -3z"/>
<path d="M8640 1580 c-9 -6 -10 -10 -3 -10 6 0 15 5 18 10 8 12 4 12 -15 0z"/>
</g>
</svg>
